# xmcd CD database file
#
# Track frame offsets:
#	150
#	16473
#	36552
#	57920
#	77034
#	98773
#	117634
#	138873
#	157226
#	175497
#
# Disc length: 2618 seconds
#
# Revision: 5
# Processed by: cddbd v1.5.2PL0 Copyright (c) Steve Scherf et al.
# Submitted via: CDex 1.70beta2
#
DISCID=8b0a380a
DTITLE=Hirasawa Susumu - SOLAR RAY
DYEAR=2001
DGENRE=Electronic
TTITLE0=Solar Ray 2
TTITLE1=Aurora 2
TTITLE2=Philosopher's Propeller 3
TTITLE3=Gemini 2
TTITLE4=Sim City 2
TTITLE5=Sekai Turbine 2
TTITLE6=Gardener King 2
TTITLE7=BERSERK-Forces 1.5
TTITLE8=Virtual Rabbit 2
TTITLE9=Hiroba De 2
EXTD=YEAR: 2001
EXTT0=
EXTT1=
EXTT2=
EXTT3=
EXTT4=
EXTT5=
EXTT6=
EXTT7=
EXTT8=
EXTT9=
PLAYORDER=
